<svg width="81" height="139" viewBox="0 0 81 139" fill="none" xmlns="http://www.w3.org/2000/svg">
<path d="M72.9716 103.847C72.3007 117.499 61.9505 128.712 48.3956 130.471C47.5728 130.542 46.7468 130.57 45.921 130.556C35.4473 130.448 25.9475 124.39 21.4303 114.94C15.0303 102.14 8.63032 80.3802 7.69165 44.4549C26.4519 43.8622 44.6792 38.072 60.3423 27.7295C63.0732 25.6969 65.4393 23.2154 67.3397 20.3909C72.242 47.9225 74.1304 75.9062 72.9716 103.847Z" fill="#3F51B5"/>
<path d="M67.3396 20.3909C65.4392 23.2154 63.0732 25.6969 60.3423 27.7295C55.3463 31.3481 49.8948 34.2919 44.1289 36.4848C47.4314 58.7766 48.5176 81.3408 47.3716 103.847C46.747 113.519 41.3587 122.249 32.9929 127.143C36.94 129.366 41.3908 130.541 45.9209 130.556C46.7467 130.57 47.5727 130.542 48.3956 130.471C61.9504 128.712 72.3007 117.499 72.9716 103.847C74.1304 75.9062 72.2419 47.9225 67.3396 20.3909Z" fill="#283593"/>
<path d="M72.9717 103.847C72.3007 117.499 61.9505 128.712 48.3956 130.471C47.5728 130.542 46.7468 130.57 45.921 130.556C35.4473 130.448 25.9475 124.39 21.4303 114.94C15.0303 102.14 8.63032 80.3802 7.69165 44.4549C26.4519 43.8622 44.6792 38.072 60.3423 27.7295C63.0732 25.6969 65.4393 23.2154 67.3397 20.3909C72.242 47.9225 74.1304 75.9062 72.9717 103.847V103.847Z" stroke="black" stroke-width="15"/>
</svg>
