<svg width="272" height="220" viewBox="0 0 272 220" fill="none" xmlns="http://www.w3.org/2000/svg">
<path d="M264.236 109.956C264.236 145.113 264.236 176.175 233.431 194.607C226.331 198.744 218.732 201.955 210.817 204.164C186.456 210.338 161.356 213.095 136.236 212.356C111.116 213.095 86.0152 210.338 61.6545 204.164C53.7401 201.955 46.1407 198.744 39.0412 194.607C8.23584 176.175 8.23584 145.113 8.23584 109.956C8.23584 62.6815 48.2572 22.9161 102.615 11.1401C113.664 8.76448 124.934 7.56314 136.236 7.55612C142.252 7.54965 148.264 7.89155 154.241 8.58012C216.364 15.5775 264.236 58.2441 264.236 109.956Z" fill="#FFE0B2"/>
<path d="M154.241 8.58012C148.264 7.89155 142.252 7.54965 136.236 7.55612C132.182 7.55612 128.24 7.90599 124.289 8.20466C125.74 8.33266 127.208 8.40945 128.65 8.58012C190.764 15.5775 238.636 58.2441 238.636 109.956C238.636 145.113 238.636 176.175 207.83 194.607C200.731 198.744 193.132 201.955 185.217 204.164C165.046 209.443 144.286 212.138 123.436 212.185C127.566 212.288 131.807 212.356 136.236 212.356C161.356 213.095 186.456 210.338 210.817 204.164C218.732 201.955 226.331 198.744 233.43 194.607C264.236 176.175 264.236 145.113 264.236 109.956C264.236 58.2441 216.364 15.5775 154.241 8.58012Z" fill="#DFC49C"/>
<path d="M264.236 109.956C264.236 145.113 264.236 176.175 233.431 194.607C226.331 198.744 218.732 201.955 210.817 204.164C186.456 210.338 161.356 213.095 136.236 212.356C111.116 213.095 86.0152 210.338 61.6545 204.164C53.7401 201.955 46.1407 198.744 39.0412 194.607C8.23584 176.175 8.23584 145.113 8.23584 109.956C8.23584 62.6815 48.2572 22.9161 102.615 11.1401C113.664 8.76448 124.934 7.56314 136.236 7.55612C142.252 7.54965 148.264 7.89155 154.241 8.58012C216.364 15.5775 264.236 58.2441 264.236 109.956Z" stroke="black" stroke-width="15"/>
</svg>
