<svg width="186" height="119" viewBox="0 0 186 119" fill="none" xmlns="http://www.w3.org/2000/svg">
<path d="M178.228 64.8014C178.534 69.9296 177.689 75.0614 175.753 79.8201C174.908 82.1502 173.76 84.3593 172.34 86.3907C170.439 89.2153 168.073 91.6968 165.342 93.7294C149.679 104.072 131.452 109.862 112.692 110.455C106.718 110.967 100.318 111.223 93.2358 111.223C86.1531 111.223 79.7531 110.967 73.7798 110.455C55.0195 109.862 36.7922 104.072 21.1291 93.7294C18.3982 91.6968 16.0321 89.2153 14.1317 86.3907C12.7113 84.3593 11.5638 82.1502 10.7184 79.8201C8.78262 75.0614 7.93704 69.9296 8.24375 64.8014C8.98422 45.8474 12.4915 27.1034 18.6544 9.16406C43.0151 15.3375 68.1158 18.0946 93.2358 17.3561C118.356 18.0946 143.456 15.3375 167.817 9.16406C173.98 27.1034 177.487 45.8474 178.228 64.8014Z" fill="#E91E63"/>
<path d="M167.817 9.16406C159.938 11.4091 151.911 13.0972 143.796 14.2158C148.929 30.6213 151.898 47.627 152.628 64.8014C152.934 69.9296 152.089 75.0614 150.153 79.8201C149.308 82.1502 148.16 84.3593 146.74 86.3907C144.839 89.2153 142.473 91.6968 139.742 93.7294C124.079 104.072 105.852 109.862 87.0915 110.455C84.9582 110.634 82.6883 110.745 80.4355 110.864C84.4889 111.078 88.6873 111.223 93.2355 111.223C100.318 111.223 106.718 110.967 112.692 110.455C131.452 109.862 149.679 104.072 165.342 93.7294C168.073 91.6968 170.439 89.2153 172.34 86.3907C173.76 84.3593 174.908 82.1502 175.753 79.8201C177.689 75.0614 178.534 69.9296 178.228 64.8014C177.487 45.8474 173.98 27.1034 167.817 9.16406Z" fill="#AD1457"/>
<path d="M178.228 64.8014C178.534 69.9296 177.689 75.0614 175.753 79.8201C174.908 82.1502 173.76 84.3593 172.34 86.3907C170.439 89.2153 168.073 91.6968 165.342 93.7294C149.679 104.072 131.452 109.862 112.692 110.455C106.718 110.967 100.318 111.223 93.2358 111.223C86.1531 111.223 79.7531 110.967 73.7798 110.455C55.0195 109.862 36.7922 104.072 21.1291 93.7294C18.3982 91.6968 16.0321 89.2153 14.1317 86.3907C12.7113 84.3593 11.5638 82.1502 10.7184 79.8201C8.78262 75.0614 7.93704 69.9296 8.24375 64.8014C8.98422 45.8474 12.4915 27.1034 18.6544 9.16406C43.0151 15.3375 68.1158 18.0946 93.2358 17.3561C118.356 18.0946 143.456 15.3375 167.817 9.16406C173.98 27.1034 177.487 45.8474 178.228 64.8014Z" stroke="black" stroke-width="15"/>
<path d="M101.769 60.0227H84.7023C79.9894 60.0227 76.1689 63.8432 76.1689 68.556C76.1689 73.2689 79.9894 77.0894 84.7023 77.0894H101.769C106.482 77.0894 110.302 73.2689 110.302 68.556C110.302 63.8432 106.482 60.0227 101.769 60.0227Z" fill="black"/>
</svg>
