<svg width="76" height="107" viewBox="0 0 76 107" fill="none" xmlns="http://www.w3.org/2000/svg">
<path d="M63.0649 87.6868C56.2382 98.2682 43.1822 105.18 17.7529 89.8202C19.6887 85.0615 20.5343 79.9297 20.2276 74.8015C19.4871 55.8475 15.9798 37.1035 9.81689 19.1642C17.7313 16.9555 25.3307 13.7436 32.4302 9.60681C45.6983 20.4008 56.3963 34.0138 63.7476 49.4575C70.2811 61.4285 70.0217 75.9567 63.0649 87.6868Z" fill="#9D27B0"/>
<path d="M63.7477 49.4575C56.3964 34.0138 45.6984 20.4008 32.4303 9.60681C27.062 12.7652 21.3795 15.3563 15.4746 17.338C24.7364 26.7338 32.3956 37.5842 38.1477 49.4575C44.6812 61.4285 44.4218 75.9567 37.465 87.6868C35.4476 90.9318 32.712 93.6702 29.4693 95.6911C47.3466 102.714 57.3818 96.5018 63.065 87.6868C70.0218 75.9567 70.2812 61.4285 63.7477 49.4575Z" fill="#6A1B9A"/>
<path d="M63.0649 87.6868C56.2382 98.2682 43.1822 105.18 17.7529 89.8202C19.6887 85.0615 20.5343 79.9297 20.2276 74.8015C19.4871 55.8475 15.9798 37.1035 9.81689 19.1642C17.7313 16.9555 25.3307 13.7436 32.4302 9.60681C45.6983 20.4008 56.3963 34.0138 63.7476 49.4575C70.2811 61.4285 70.0217 75.9567 63.0649 87.6868V87.6868Z" stroke="black" stroke-width="15"/>
</svg>
