<svg width="172" height="61" viewBox="0 0 172 61" fill="none" xmlns="http://www.w3.org/2000/svg">
<path d="M30.7691 51.6895C42.5512 51.6895 52.1025 42.1382 52.1025 30.3562C52.1025 18.5741 42.5512 9.02283 30.7691 9.02283C18.9871 9.02283 9.43579 18.5741 9.43579 30.3562C9.43579 42.1382 18.9871 51.6895 30.7691 51.6895Z" fill="#3F51B5"/>
<path d="M141.702 51.6895C153.485 51.6895 163.036 42.1382 163.036 30.3562C163.036 18.5741 153.485 9.02283 141.702 9.02283C129.92 9.02283 120.369 18.5741 120.369 30.3562C120.369 42.1382 129.92 51.6895 141.702 51.6895Z" fill="#3F51B5"/>
<path d="M0.902344 51.6895C0.902344 56.4023 4.72285 60.2228 9.43568 60.2228H52.1023C56.8152 60.2228 60.6357 56.4023 60.6357 51.6895C60.6007 48.8726 59.1512 46.2623 56.7786 44.7434C59.2724 40.3559 60.6003 35.4027 60.6357 30.3562C60.6357 13.8613 47.2639 0.489502 30.769 0.489502C14.2741 0.489502 0.902344 13.8613 0.902344 30.3562C0.937702 35.4027 2.26563 40.3559 4.75941 44.7434C2.38686 46.2623 0.937367 48.8726 0.902344 51.6895ZM30.769 17.5562C37.8383 17.5562 43.569 23.2869 43.569 30.3562C43.569 37.4254 37.8383 43.1562 30.769 43.1562C23.6998 43.1562 17.969 37.4254 17.969 30.3562C17.969 23.2869 23.6998 17.5562 30.769 17.5562Z" fill="black"/>
<path d="M111.836 51.6895C111.836 56.4023 115.656 60.2228 120.369 60.2228H163.036C167.749 60.2228 171.569 56.4023 171.569 51.6895C171.534 48.8726 170.085 46.2623 167.712 44.7434C170.206 40.3559 171.534 35.4027 171.569 30.3562C171.569 13.8613 158.198 0.489502 141.703 0.489502C125.208 0.489502 111.836 13.8613 111.836 30.3562C111.871 35.4027 113.199 40.3559 115.693 44.7434C113.32 46.2623 111.871 48.8726 111.836 51.6895ZM141.703 17.5562C148.772 17.5562 154.503 23.2869 154.503 30.3562C154.503 37.4254 148.772 43.1562 141.703 43.1562C134.633 43.1562 128.903 37.4254 128.903 30.3562C128.903 23.2869 134.633 17.5562 141.703 17.5562Z" fill="black"/>
</svg>
